<?xml version="1.0" encoding="utf-8" standalone="no"?>
<!DOCTYPE svg PUBLIC "-//W3C//DTD SVG 1.1//EN"
  "http://www.w3.org/Graphics/SVG/1.1/DTD/svg11.dtd">
<svg height="359.28pt" version="1.1" viewBox="0 0 431.28 359.28" width="431.28pt" xmlns="http://www.w3.org/2000/svg" xmlns:xlink="http://www.w3.org/1999/xlink">
 <metadata>
  <rdf:RDF xmlns:cc="http://creativecommons.org/ns#" xmlns:dc="http://purl.org/dc/elements/1.1/" xmlns:rdf="http://www.w3.org/1999/02/22-rdf-syntax-ns#">
   <cc:Work>
    <dc:type rdf:resource="http://purl.org/dc/dcmitype/StillImage"/>
    <dc:date>2021-11-25T00:26:07.733854</dc:date>
    <dc:format>image/svg+xml</dc:format>
    <dc:creator>
     <cc:Agent>
      <dc:title>Matplotlib v3.4.2, https://matplotlib.org/</dc:title>
     </cc:Agent>
    </dc:creator>
   </cc:Work>
  </rdf:RDF>
 </metadata>
 <defs>
  <style type="text/css">*{stroke-linecap:butt;stroke-linejoin:round;}</style>
 </defs>
 <g id="figure_1">
  <g id="patch_1">
   <path d="M 0 359.28 
L 431.28 359.28 
L 431.28 0 
L 0 0 
z
" style="fill:#ffffff;"/>
  </g>
  <g id="axes_1">
   <g id="patch_2">
    <path d="M 65.300295 306.599791 
L 420.48 306.599791 
L 420.48 21.400052 
L 65.300295 21.400052 
z
" style="fill:#ffffff;"/>
   </g>
   <g id="matplotlib.axis_1">
    <g id="xtick_1">
     <g id="line2d_1">
      <defs>
       <path d="M 0 0 
L 0 3.5 
" id="m24438dea02" style="stroke:#000000;stroke-width:0.8;"/>
      </defs>
      <g>
       <use style="stroke:#000000;stroke-width:0.8;" x="81.444827" xlink:href="#m24438dea02" y="306.599791"/>
      </g>
     </g>
     <g id="text_1">
      <!-- 0.1 -->
      <g transform="translate(69.994577 324.541541)scale(0.144 -0.144)">
       <defs>
        <path d="M 2034 4250 
Q 1547 4250 1301 3770 
Q 1056 3291 1056 2328 
Q 1056 1369 1301 889 
Q 1547 409 2034 409 
Q 2525 409 2770 889 
Q 3016 1369 3016 2328 
Q 3016 3291 2770 3770 
Q 2525 4250 2034 4250 
z
M 2034 4750 
Q 2819 4750 3233 4129 
Q 3647 3509 3647 2328 
Q 3647 1150 3233 529 
Q 2819 -91 2034 -91 
Q 1250 -91 836 529 
Q 422 1150 422 2328 
Q 422 3509 836 4129 
Q 1250 4750 2034 4750 
z
" id="DejaVuSans-30" transform="scale(0.015625)"/>
        <path d="M 684 794 
L 1344 794 
L 1344 0 
L 684 0 
L 684 794 
z
" id="DejaVuSans-2e" transform="scale(0.015625)"/>
        <path d="M 794 531 
L 1825 531 
L 1825 4091 
L 703 3866 
L 703 4441 
L 1819 4666 
L 2450 4666 
L 2450 531 
L 3481 531 
L 3481 0 
L 794 0 
L 794 531 
z
" id="DejaVuSans-31" transform="scale(0.015625)"/>
       </defs>
       <use xlink:href="#DejaVuSans-30"/>
       <use x="63.623047" xlink:href="#DejaVuSans-2e"/>
       <use x="95.410156" xlink:href="#DejaVuSans-31"/>
      </g>
     </g>
    </g>
    <g id="xtick_2">
     <g id="line2d_2">
      <g>
       <use style="stroke:#000000;stroke-width:0.8;" x="242.890148" xlink:href="#m24438dea02" y="306.599791"/>
      </g>
     </g>
     <g id="text_2">
      <!-- 0.3 -->
      <g transform="translate(231.439898 324.541541)scale(0.144 -0.144)">
       <defs>
        <path d="M 2597 2516 
Q 3050 2419 3304 2112 
Q 3559 1806 3559 1356 
Q 3559 666 3084 287 
Q 2609 -91 1734 -91 
Q 1441 -91 1130 -33 
Q 819 25 488 141 
L 488 750 
Q 750 597 1062 519 
Q 1375 441 1716 441 
Q 2309 441 2620 675 
Q 2931 909 2931 1356 
Q 2931 1769 2642 2001 
Q 2353 2234 1838 2234 
L 1294 2234 
L 1294 2753 
L 1863 2753 
Q 2328 2753 2575 2939 
Q 2822 3125 2822 3475 
Q 2822 3834 2567 4026 
Q 2313 4219 1838 4219 
Q 1578 4219 1281 4162 
Q 984 4106 628 3988 
L 628 4550 
Q 988 4650 1302 4700 
Q 1616 4750 1894 4750 
Q 2613 4750 3031 4423 
Q 3450 4097 3450 3541 
Q 3450 3153 3228 2886 
Q 3006 2619 2597 2516 
z
" id="DejaVuSans-33" transform="scale(0.015625)"/>
       </defs>
       <use xlink:href="#DejaVuSans-30"/>
       <use x="63.623047" xlink:href="#DejaVuSans-2e"/>
       <use x="95.410156" xlink:href="#DejaVuSans-33"/>
      </g>
     </g>
    </g>
    <g id="xtick_3">
     <g id="line2d_3">
      <g>
       <use style="stroke:#000000;stroke-width:0.8;" x="404.335468" xlink:href="#m24438dea02" y="306.599791"/>
      </g>
     </g>
     <g id="text_3">
      <!-- 0.5 -->
      <g transform="translate(392.885218 324.541541)scale(0.144 -0.144)">
       <defs>
        <path d="M 691 4666 
L 3169 4666 
L 3169 4134 
L 1269 4134 
L 1269 2991 
Q 1406 3038 1543 3061 
Q 1681 3084 1819 3084 
Q 2600 3084 3056 2656 
Q 3513 2228 3513 1497 
Q 3513 744 3044 326 
Q 2575 -91 1722 -91 
Q 1428 -91 1123 -41 
Q 819 9 494 109 
L 494 744 
Q 775 591 1075 516 
Q 1375 441 1709 441 
Q 2250 441 2565 725 
Q 2881 1009 2881 1497 
Q 2881 1984 2565 2268 
Q 2250 2553 1709 2553 
Q 1456 2553 1204 2497 
Q 953 2441 691 2322 
L 691 4666 
z
" id="DejaVuSans-35" transform="scale(0.015625)"/>
       </defs>
       <use xlink:href="#DejaVuSans-30"/>
       <use x="63.623047" xlink:href="#DejaVuSans-2e"/>
       <use x="95.410156" xlink:href="#DejaVuSans-35"/>
      </g>
     </g>
    </g>
    <g id="text_4">
     <!-- $V_{max}$ [V] -->
     <g transform="translate(208.157348 344.666391)scale(0.1728 -0.1728)">
      <defs>
       <path d="M 1319 0 
L 500 4666 
L 1119 4666 
L 1797 653 
L 4063 4666 
L 4750 4666 
L 2053 0 
L 1319 0 
z
" id="DejaVuSans-Oblique-56" transform="scale(0.015625)"/>
       <path d="M 5747 2113 
L 5338 0 
L 4763 0 
L 5166 2094 
Q 5191 2228 5203 2325 
Q 5216 2422 5216 2491 
Q 5216 2772 5059 2928 
Q 4903 3084 4622 3084 
Q 4203 3084 3875 2770 
Q 3547 2456 3450 1953 
L 3066 0 
L 2491 0 
L 2900 2094 
Q 2925 2209 2937 2307 
Q 2950 2406 2950 2484 
Q 2950 2769 2794 2926 
Q 2638 3084 2363 3084 
Q 1938 3084 1609 2770 
Q 1281 2456 1184 1953 
L 800 0 
L 225 0 
L 909 3500 
L 1484 3500 
L 1375 2956 
Q 1609 3263 1923 3423 
Q 2238 3584 2597 3584 
Q 2978 3584 3223 3384 
Q 3469 3184 3519 2828 
Q 3781 3197 4126 3390 
Q 4472 3584 4856 3584 
Q 5306 3584 5551 3325 
Q 5797 3066 5797 2591 
Q 5797 2488 5784 2364 
Q 5772 2241 5747 2113 
z
" id="DejaVuSans-Oblique-6d" transform="scale(0.015625)"/>
       <path d="M 3438 1997 
L 3047 0 
L 2472 0 
L 2578 531 
Q 2325 219 2001 64 
Q 1678 -91 1281 -91 
Q 834 -91 548 182 
Q 263 456 263 884 
Q 263 1497 752 1853 
Q 1241 2209 2100 2209 
L 2900 2209 
L 2931 2363 
Q 2938 2388 2941 2417 
Q 2944 2447 2944 2509 
Q 2944 2788 2717 2942 
Q 2491 3097 2081 3097 
Q 1800 3097 1504 3025 
Q 1209 2953 897 2809 
L 997 3341 
Q 1322 3463 1633 3523 
Q 1944 3584 2234 3584 
Q 2853 3584 3176 3315 
Q 3500 3047 3500 2534 
Q 3500 2431 3484 2292 
Q 3469 2153 3438 1997 
z
M 2816 1759 
L 2241 1759 
Q 1534 1759 1195 1570 
Q 856 1381 856 984 
Q 856 709 1029 553 
Q 1203 397 1509 397 
Q 1978 397 2328 733 
Q 2678 1069 2791 1631 
L 2816 1759 
z
" id="DejaVuSans-Oblique-61" transform="scale(0.015625)"/>
       <path d="M 3841 3500 
L 2234 1784 
L 3219 0 
L 2559 0 
L 1819 1388 
L 531 0 
L -166 0 
L 1556 1844 
L 641 3500 
L 1300 3500 
L 1972 2234 
L 3144 3500 
L 3841 3500 
z
" id="DejaVuSans-Oblique-78" transform="scale(0.015625)"/>
       <path id="DejaVuSans-20" transform="scale(0.015625)"/>
       <path d="M 550 4863 
L 1875 4863 
L 1875 4416 
L 1125 4416 
L 1125 -397 
L 1875 -397 
L 1875 -844 
L 550 -844 
L 550 4863 
z
" id="DejaVuSans-5b" transform="scale(0.015625)"/>
       <path d="M 1831 0 
L 50 4666 
L 709 4666 
L 2188 738 
L 3669 4666 
L 4325 4666 
L 2547 0 
L 1831 0 
z
" id="DejaVuSans-56" transform="scale(0.015625)"/>
       <path d="M 1947 4863 
L 1947 -844 
L 622 -844 
L 622 -397 
L 1369 -397 
L 1369 4416 
L 622 4416 
L 622 4863 
L 1947 4863 
z
" id="DejaVuSans-5d" transform="scale(0.015625)"/>
      </defs>
      <use transform="translate(0 0.015625)" xlink:href="#DejaVuSans-Oblique-56"/>
      <use transform="translate(68.408203 -16.390625)scale(0.7)" xlink:href="#DejaVuSans-Oblique-6d"/>
      <use transform="translate(136.59668 -16.390625)scale(0.7)" xlink:href="#DejaVuSans-Oblique-61"/>
      <use transform="translate(179.492188 -16.390625)scale(0.7)" xlink:href="#DejaVuSans-Oblique-78"/>
      <use transform="translate(223.652344 0.015625)" xlink:href="#DejaVuSans-20"/>
      <use transform="translate(255.439453 0.015625)" xlink:href="#DejaVuSans-5b"/>
      <use transform="translate(294.453125 0.015625)" xlink:href="#DejaVuSans-56"/>
      <use transform="translate(362.861328 0.015625)" xlink:href="#DejaVuSans-5d"/>
     </g>
    </g>
   </g>
   <g id="matplotlib.axis_2">
    <g id="ytick_1">
     <g id="line2d_4">
      <defs>
       <path d="M 0 0 
L -3.5 0 
" id="m55fa158dd9" style="stroke:#000000;stroke-width:0.8;"/>
      </defs>
      <g>
       <use style="stroke:#000000;stroke-width:0.8;" x="65.300295" xlink:href="#m55fa158dd9" y="283.368679"/>
      </g>
     </g>
     <g id="text_5">
      <!-- 0.3 -->
      <g transform="translate(35.399795 288.839554)scale(0.144 -0.144)">
       <use xlink:href="#DejaVuSans-30"/>
       <use x="63.623047" xlink:href="#DejaVuSans-2e"/>
       <use x="95.410156" xlink:href="#DejaVuSans-33"/>
      </g>
     </g>
    </g>
    <g id="ytick_2">
     <g id="line2d_5">
      <g>
       <use style="stroke:#000000;stroke-width:0.8;" x="65.300295" xlink:href="#m55fa158dd9" y="250.131258"/>
      </g>
     </g>
     <g id="text_6">
      <!-- 0.4 -->
      <g transform="translate(35.399795 255.602133)scale(0.144 -0.144)">
       <defs>
        <path d="M 2419 4116 
L 825 1625 
L 2419 1625 
L 2419 4116 
z
M 2253 4666 
L 3047 4666 
L 3047 1625 
L 3713 1625 
L 3713 1100 
L 3047 1100 
L 3047 0 
L 2419 0 
L 2419 1100 
L 313 1100 
L 313 1709 
L 2253 4666 
z
" id="DejaVuSans-34" transform="scale(0.015625)"/>
       </defs>
       <use xlink:href="#DejaVuSans-30"/>
       <use x="63.623047" xlink:href="#DejaVuSans-2e"/>
       <use x="95.410156" xlink:href="#DejaVuSans-34"/>
      </g>
     </g>
    </g>
    <g id="ytick_3">
     <g id="line2d_6">
      <g>
       <use style="stroke:#000000;stroke-width:0.8;" x="65.300295" xlink:href="#m55fa158dd9" y="216.893837"/>
      </g>
     </g>
     <g id="text_7">
      <!-- 0.5 -->
      <g transform="translate(35.399795 222.364712)scale(0.144 -0.144)">
       <use xlink:href="#DejaVuSans-30"/>
       <use x="63.623047" xlink:href="#DejaVuSans-2e"/>
       <use x="95.410156" xlink:href="#DejaVuSans-35"/>
      </g>
     </g>
    </g>
    <g id="ytick_4">
     <g id="line2d_7">
      <g>
       <use style="stroke:#000000;stroke-width:0.8;" x="65.300295" xlink:href="#m55fa158dd9" y="183.656417"/>
      </g>
     </g>
     <g id="text_8">
      <!-- 0.6 -->
      <g transform="translate(35.399795 189.127292)scale(0.144 -0.144)">
       <defs>
        <path d="M 2113 2584 
Q 1688 2584 1439 2293 
Q 1191 2003 1191 1497 
Q 1191 994 1439 701 
Q 1688 409 2113 409 
Q 2538 409 2786 701 
Q 3034 994 3034 1497 
Q 3034 2003 2786 2293 
Q 2538 2584 2113 2584 
z
M 3366 4563 
L 3366 3988 
Q 3128 4100 2886 4159 
Q 2644 4219 2406 4219 
Q 1781 4219 1451 3797 
Q 1122 3375 1075 2522 
Q 1259 2794 1537 2939 
Q 1816 3084 2150 3084 
Q 2853 3084 3261 2657 
Q 3669 2231 3669 1497 
Q 3669 778 3244 343 
Q 2819 -91 2113 -91 
Q 1303 -91 875 529 
Q 447 1150 447 2328 
Q 447 3434 972 4092 
Q 1497 4750 2381 4750 
Q 2619 4750 2861 4703 
Q 3103 4656 3366 4563 
z
" id="DejaVuSans-36" transform="scale(0.015625)"/>
       </defs>
       <use xlink:href="#DejaVuSans-30"/>
       <use x="63.623047" xlink:href="#DejaVuSans-2e"/>
       <use x="95.410156" xlink:href="#DejaVuSans-36"/>
      </g>
     </g>
    </g>
    <g id="ytick_5">
     <g id="line2d_8">
      <g>
       <use style="stroke:#000000;stroke-width:0.8;" x="65.300295" xlink:href="#m55fa158dd9" y="150.418996"/>
      </g>
     </g>
     <g id="text_9">
      <!-- 0.7 -->
      <g transform="translate(35.399795 155.889871)scale(0.144 -0.144)">
       <defs>
        <path d="M 525 4666 
L 3525 4666 
L 3525 4397 
L 1831 0 
L 1172 0 
L 2766 4134 
L 525 4134 
L 525 4666 
z
" id="DejaVuSans-37" transform="scale(0.015625)"/>
       </defs>
       <use xlink:href="#DejaVuSans-30"/>
       <use x="63.623047" xlink:href="#DejaVuSans-2e"/>
       <use x="95.410156" xlink:href="#DejaVuSans-37"/>
      </g>
     </g>
    </g>
    <g id="ytick_6">
     <g id="line2d_9">
      <g>
       <use style="stroke:#000000;stroke-width:0.8;" x="65.300295" xlink:href="#m55fa158dd9" y="117.181576"/>
      </g>
     </g>
     <g id="text_10">
      <!-- 0.8 -->
      <g transform="translate(35.399795 122.652451)scale(0.144 -0.144)">
       <defs>
        <path d="M 2034 2216 
Q 1584 2216 1326 1975 
Q 1069 1734 1069 1313 
Q 1069 891 1326 650 
Q 1584 409 2034 409 
Q 2484 409 2743 651 
Q 3003 894 3003 1313 
Q 3003 1734 2745 1975 
Q 2488 2216 2034 2216 
z
M 1403 2484 
Q 997 2584 770 2862 
Q 544 3141 544 3541 
Q 544 4100 942 4425 
Q 1341 4750 2034 4750 
Q 2731 4750 3128 4425 
Q 3525 4100 3525 3541 
Q 3525 3141 3298 2862 
Q 3072 2584 2669 2484 
Q 3125 2378 3379 2068 
Q 3634 1759 3634 1313 
Q 3634 634 3220 271 
Q 2806 -91 2034 -91 
Q 1263 -91 848 271 
Q 434 634 434 1313 
Q 434 1759 690 2068 
Q 947 2378 1403 2484 
z
M 1172 3481 
Q 1172 3119 1398 2916 
Q 1625 2713 2034 2713 
Q 2441 2713 2670 2916 
Q 2900 3119 2900 3481 
Q 2900 3844 2670 4047 
Q 2441 4250 2034 4250 
Q 1625 4250 1398 4047 
Q 1172 3844 1172 3481 
z
" id="DejaVuSans-38" transform="scale(0.015625)"/>
       </defs>
       <use xlink:href="#DejaVuSans-30"/>
       <use x="63.623047" xlink:href="#DejaVuSans-2e"/>
       <use x="95.410156" xlink:href="#DejaVuSans-38"/>
      </g>
     </g>
    </g>
    <g id="ytick_7">
     <g id="line2d_10">
      <g>
       <use style="stroke:#000000;stroke-width:0.8;" x="65.300295" xlink:href="#m55fa158dd9" y="83.944155"/>
      </g>
     </g>
     <g id="text_11">
      <!-- 0.9 -->
      <g transform="translate(35.399795 89.41503)scale(0.144 -0.144)">
       <defs>
        <path d="M 703 97 
L 703 672 
Q 941 559 1184 500 
Q 1428 441 1663 441 
Q 2288 441 2617 861 
Q 2947 1281 2994 2138 
Q 2813 1869 2534 1725 
Q 2256 1581 1919 1581 
Q 1219 1581 811 2004 
Q 403 2428 403 3163 
Q 403 3881 828 4315 
Q 1253 4750 1959 4750 
Q 2769 4750 3195 4129 
Q 3622 3509 3622 2328 
Q 3622 1225 3098 567 
Q 2575 -91 1691 -91 
Q 1453 -91 1209 -44 
Q 966 3 703 97 
z
M 1959 2075 
Q 2384 2075 2632 2365 
Q 2881 2656 2881 3163 
Q 2881 3666 2632 3958 
Q 2384 4250 1959 4250 
Q 1534 4250 1286 3958 
Q 1038 3666 1038 3163 
Q 1038 2656 1286 2365 
Q 1534 2075 1959 2075 
z
" id="DejaVuSans-39" transform="scale(0.015625)"/>
       </defs>
       <use xlink:href="#DejaVuSans-30"/>
       <use x="63.623047" xlink:href="#DejaVuSans-2e"/>
       <use x="95.410156" xlink:href="#DejaVuSans-39"/>
      </g>
     </g>
    </g>
    <g id="ytick_8">
     <g id="line2d_11">
      <g>
       <use style="stroke:#000000;stroke-width:0.8;" x="65.300295" xlink:href="#m55fa158dd9" y="50.706735"/>
      </g>
     </g>
     <g id="text_12">
      <!-- 1.0 -->
      <g transform="translate(35.399795 56.17761)scale(0.144 -0.144)">
       <use xlink:href="#DejaVuSans-31"/>
       <use x="63.623047" xlink:href="#DejaVuSans-2e"/>
       <use x="95.410156" xlink:href="#DejaVuSans-30"/>
      </g>
     </g>
    </g>
    <g id="text_13">
     <!-- Defect Density [$cm^{-2}$] -->
     <g transform="translate(27.770995 260.335921)rotate(-90)scale(0.1728 -0.1728)">
      <defs>
       <path d="M 1259 4147 
L 1259 519 
L 2022 519 
Q 2988 519 3436 956 
Q 3884 1394 3884 2338 
Q 3884 3275 3436 3711 
Q 2988 4147 2022 4147 
L 1259 4147 
z
M 628 4666 
L 1925 4666 
Q 3281 4666 3915 4102 
Q 4550 3538 4550 2338 
Q 4550 1131 3912 565 
Q 3275 0 1925 0 
L 628 0 
L 628 4666 
z
" id="DejaVuSans-44" transform="scale(0.015625)"/>
       <path d="M 3597 1894 
L 3597 1613 
L 953 1613 
Q 991 1019 1311 708 
Q 1631 397 2203 397 
Q 2534 397 2845 478 
Q 3156 559 3463 722 
L 3463 178 
Q 3153 47 2828 -22 
Q 2503 -91 2169 -91 
Q 1331 -91 842 396 
Q 353 884 353 1716 
Q 353 2575 817 3079 
Q 1281 3584 2069 3584 
Q 2775 3584 3186 3129 
Q 3597 2675 3597 1894 
z
M 3022 2063 
Q 3016 2534 2758 2815 
Q 2500 3097 2075 3097 
Q 1594 3097 1305 2825 
Q 1016 2553 972 2059 
L 3022 2063 
z
" id="DejaVuSans-65" transform="scale(0.015625)"/>
       <path d="M 2375 4863 
L 2375 4384 
L 1825 4384 
Q 1516 4384 1395 4259 
Q 1275 4134 1275 3809 
L 1275 3500 
L 2222 3500 
L 2222 3053 
L 1275 3053 
L 1275 0 
L 697 0 
L 697 3053 
L 147 3053 
L 147 3500 
L 697 3500 
L 697 3744 
Q 697 4328 969 4595 
Q 1241 4863 1831 4863 
L 2375 4863 
z
" id="DejaVuSans-66" transform="scale(0.015625)"/>
       <path d="M 3122 3366 
L 3122 2828 
Q 2878 2963 2633 3030 
Q 2388 3097 2138 3097 
Q 1578 3097 1268 2742 
Q 959 2388 959 1747 
Q 959 1106 1268 751 
Q 1578 397 2138 397 
Q 2388 397 2633 464 
Q 2878 531 3122 666 
L 3122 134 
Q 2881 22 2623 -34 
Q 2366 -91 2075 -91 
Q 1284 -91 818 406 
Q 353 903 353 1747 
Q 353 2603 823 3093 
Q 1294 3584 2113 3584 
Q 2378 3584 2631 3529 
Q 2884 3475 3122 3366 
z
" id="DejaVuSans-63" transform="scale(0.015625)"/>
       <path d="M 1172 4494 
L 1172 3500 
L 2356 3500 
L 2356 3053 
L 1172 3053 
L 1172 1153 
Q 1172 725 1289 603 
Q 1406 481 1766 481 
L 2356 481 
L 2356 0 
L 1766 0 
Q 1100 0 847 248 
Q 594 497 594 1153 
L 594 3053 
L 172 3053 
L 172 3500 
L 594 3500 
L 594 4494 
L 1172 4494 
z
" id="DejaVuSans-74" transform="scale(0.015625)"/>
       <path d="M 3513 2113 
L 3513 0 
L 2938 0 
L 2938 2094 
Q 2938 2591 2744 2837 
Q 2550 3084 2163 3084 
Q 1697 3084 1428 2787 
Q 1159 2491 1159 1978 
L 1159 0 
L 581 0 
L 581 3500 
L 1159 3500 
L 1159 2956 
Q 1366 3272 1645 3428 
Q 1925 3584 2291 3584 
Q 2894 3584 3203 3211 
Q 3513 2838 3513 2113 
z
" id="DejaVuSans-6e" transform="scale(0.015625)"/>
       <path d="M 2834 3397 
L 2834 2853 
Q 2591 2978 2328 3040 
Q 2066 3103 1784 3103 
Q 1356 3103 1142 2972 
Q 928 2841 928 2578 
Q 928 2378 1081 2264 
Q 1234 2150 1697 2047 
L 1894 2003 
Q 2506 1872 2764 1633 
Q 3022 1394 3022 966 
Q 3022 478 2636 193 
Q 2250 -91 1575 -91 
Q 1294 -91 989 -36 
Q 684 19 347 128 
L 347 722 
Q 666 556 975 473 
Q 1284 391 1588 391 
Q 1994 391 2212 530 
Q 2431 669 2431 922 
Q 2431 1156 2273 1281 
Q 2116 1406 1581 1522 
L 1381 1569 
Q 847 1681 609 1914 
Q 372 2147 372 2553 
Q 372 3047 722 3315 
Q 1072 3584 1716 3584 
Q 2034 3584 2315 3537 
Q 2597 3491 2834 3397 
z
" id="DejaVuSans-73" transform="scale(0.015625)"/>
       <path d="M 603 3500 
L 1178 3500 
L 1178 0 
L 603 0 
L 603 3500 
z
M 603 4863 
L 1178 4863 
L 1178 4134 
L 603 4134 
L 603 4863 
z
" id="DejaVuSans-69" transform="scale(0.015625)"/>
       <path d="M 2059 -325 
Q 1816 -950 1584 -1140 
Q 1353 -1331 966 -1331 
L 506 -1331 
L 506 -850 
L 844 -850 
Q 1081 -850 1212 -737 
Q 1344 -625 1503 -206 
L 1606 56 
L 191 3500 
L 800 3500 
L 1894 763 
L 2988 3500 
L 3597 3500 
L 2059 -325 
z
" id="DejaVuSans-79" transform="scale(0.015625)"/>
       <path d="M 3431 3366 
L 3316 2797 
Q 3109 2947 2876 3022 
Q 2644 3097 2394 3097 
Q 2119 3097 1870 3000 
Q 1622 2903 1453 2725 
Q 1184 2453 1037 2087 
Q 891 1722 891 1331 
Q 891 859 1127 628 
Q 1363 397 1844 397 
Q 2081 397 2348 469 
Q 2616 541 2906 684 
L 2797 116 
Q 2547 13 2283 -39 
Q 2019 -91 1741 -91 
Q 1044 -91 669 257 
Q 294 606 294 1253 
Q 294 1797 489 2255 
Q 684 2713 1069 3078 
Q 1331 3328 1684 3456 
Q 2038 3584 2456 3584 
Q 2700 3584 2940 3529 
Q 3181 3475 3431 3366 
z
" id="DejaVuSans-Oblique-63" transform="scale(0.015625)"/>
       <path d="M 678 2272 
L 4684 2272 
L 4684 1741 
L 678 1741 
L 678 2272 
z
" id="DejaVuSans-2212" transform="scale(0.015625)"/>
       <path d="M 1228 531 
L 3431 531 
L 3431 0 
L 469 0 
L 469 531 
Q 828 903 1448 1529 
Q 2069 2156 2228 2338 
Q 2531 2678 2651 2914 
Q 2772 3150 2772 3378 
Q 2772 3750 2511 3984 
Q 2250 4219 1831 4219 
Q 1534 4219 1204 4116 
Q 875 4013 500 3803 
L 500 4441 
Q 881 4594 1212 4672 
Q 1544 4750 1819 4750 
Q 2544 4750 2975 4387 
Q 3406 4025 3406 3419 
Q 3406 3131 3298 2873 
Q 3191 2616 2906 2266 
Q 2828 2175 2409 1742 
Q 1991 1309 1228 531 
z
" id="DejaVuSans-32" transform="scale(0.015625)"/>
      </defs>
      <use transform="translate(0 0.765625)" xlink:href="#DejaVuSans-44"/>
      <use transform="translate(77.001953 0.765625)" xlink:href="#DejaVuSans-65"/>
      <use transform="translate(138.525391 0.765625)" xlink:href="#DejaVuSans-66"/>
      <use transform="translate(173.730469 0.765625)" xlink:href="#DejaVuSans-65"/>
      <use transform="translate(235.253906 0.765625)" xlink:href="#DejaVuSans-63"/>
      <use transform="translate(290.234375 0.765625)" xlink:href="#DejaVuSans-74"/>
      <use transform="translate(329.443359 0.765625)" xlink:href="#DejaVuSans-20"/>
      <use transform="translate(361.230469 0.765625)" xlink:href="#DejaVuSans-44"/>
      <use transform="translate(438.232422 0.765625)" xlink:href="#DejaVuSans-65"/>
      <use transform="translate(499.755859 0.765625)" xlink:href="#DejaVuSans-6e"/>
      <use transform="translate(563.134766 0.765625)" xlink:href="#DejaVuSans-73"/>
      <use transform="translate(615.234375 0.765625)" xlink:href="#DejaVuSans-69"/>
      <use transform="translate(643.017578 0.765625)" xlink:href="#DejaVuSans-74"/>
      <use transform="translate(682.226562 0.765625)" xlink:href="#DejaVuSans-79"/>
      <use transform="translate(741.40625 0.765625)" xlink:href="#DejaVuSans-20"/>
      <use transform="translate(773.193359 0.765625)" xlink:href="#DejaVuSans-5b"/>
      <use transform="translate(812.207031 0.765625)" xlink:href="#DejaVuSans-Oblique-63"/>
      <use transform="translate(867.1875 0.765625)" xlink:href="#DejaVuSans-Oblique-6d"/>
      <use transform="translate(969.249505 39.046875)scale(0.7)" xlink:href="#DejaVuSans-2212"/>
      <use transform="translate(1027.901849 39.046875)scale(0.7)" xlink:href="#DejaVuSans-32"/>
      <use transform="translate(1075.172357 0.765625)" xlink:href="#DejaVuSans-5d"/>
     </g>
    </g>
    <g id="text_14">
     <!-- 1e13 -->
     <g transform="translate(65.300295 18.400052)scale(0.1 -0.1)">
      <use xlink:href="#DejaVuSans-31"/>
      <use x="63.623047" xlink:href="#DejaVuSans-65"/>
      <use x="125.146484" xlink:href="#DejaVuSans-31"/>
      <use x="188.769531" xlink:href="#DejaVuSans-33"/>
     </g>
    </g>
   </g>
   <g id="LineCollection_1">
    <path clip-path="url(#p92310eca5c)" d="M 81.444827 279.437826 
L 81.444827 259.051027 
" style="fill:none;stroke:#1f77b4;stroke-width:1.5;"/>
    <path clip-path="url(#p92310eca5c)" d="M 242.890148 275.977107 
L 242.890148 255.874524 
" style="fill:none;stroke:#1f77b4;stroke-width:1.5;"/>
    <path clip-path="url(#p92310eca5c)" d="M 404.335468 266.977732 
L 404.335468 247.311287 
" style="fill:none;stroke:#1f77b4;stroke-width:1.5;"/>
   </g>
   <g id="LineCollection_2">
    <path clip-path="url(#p92310eca5c)" d="M 81.444827 293.636166 
L 81.444827 273.565433 
" style="fill:none;stroke:#ff7f0e;stroke-width:1.5;"/>
    <path clip-path="url(#p92310eca5c)" d="M 242.890148 272.065189 
L 242.890148 253.3619 
" style="fill:none;stroke:#ff7f0e;stroke-width:1.5;"/>
    <path clip-path="url(#p92310eca5c)" d="M 404.335468 251.177378 
L 404.335468 235.033056 
" style="fill:none;stroke:#ff7f0e;stroke-width:1.5;"/>
   </g>
   <g id="LineCollection_3">
    <path clip-path="url(#p92310eca5c)" d="M 81.444827 235.91938 
L 81.444827 182.42492 
" style="fill:none;stroke:#2ca02c;stroke-width:1.5;"/>
    <path clip-path="url(#p92310eca5c)" d="M 242.890148 204.416021 
L 242.890148 152.73833 
" style="fill:none;stroke:#2ca02c;stroke-width:1.5;"/>
    <path clip-path="url(#p92310eca5c)" d="M 404.335468 178.653523 
L 404.335468 129.137323 
" style="fill:none;stroke:#2ca02c;stroke-width:1.5;"/>
   </g>
   <g id="LineCollection_4">
    <path clip-path="url(#p92310eca5c)" d="M 81.444827 220.476889 
L 81.444827 211.573262 
" style="fill:none;stroke:#d62728;stroke-width:1.5;"/>
    <path clip-path="url(#p92310eca5c)" d="M 242.890148 202.220827 
L 242.890148 187.452426 
" style="fill:none;stroke:#d62728;stroke-width:1.5;"/>
    <path clip-path="url(#p92310eca5c)" d="M 404.335468 174.596507 
L 404.335468 166.356221 
" style="fill:none;stroke:#d62728;stroke-width:1.5;"/>
   </g>
   <g id="LineCollection_5">
    <path clip-path="url(#p92310eca5c)" d="M 81.444827 87.728356 
L 81.444827 78.480216 
" style="fill:none;stroke:#9467bd;stroke-width:1.5;"/>
    <path clip-path="url(#p92310eca5c)" d="M 242.890148 75.931423 
L 242.890148 75.637583 
" style="fill:none;stroke:#9467bd;stroke-width:1.5;"/>
    <path clip-path="url(#p92310eca5c)" d="M 404.335468 51.132727 
L 404.335468 34.363676 
" style="fill:none;stroke:#9467bd;stroke-width:1.5;"/>
   </g>
   <g id="line2d_12">
    <defs>
     <path d="M 10 0 
L -10 -0 
" id="m7231248851" style="stroke:#1f77b4;"/>
    </defs>
    <g clip-path="url(#p92310eca5c)">
     <use style="fill:#1f77b4;stroke:#1f77b4;" x="81.444827" xlink:href="#m7231248851" y="279.437826"/>
     <use style="fill:#1f77b4;stroke:#1f77b4;" x="242.890148" xlink:href="#m7231248851" y="275.977107"/>
     <use style="fill:#1f77b4;stroke:#1f77b4;" x="404.335468" xlink:href="#m7231248851" y="266.977732"/>
    </g>
   </g>
   <g id="line2d_13">
    <g clip-path="url(#p92310eca5c)">
     <use style="fill:#1f77b4;stroke:#1f77b4;" x="81.444827" xlink:href="#m7231248851" y="259.051027"/>
     <use style="fill:#1f77b4;stroke:#1f77b4;" x="242.890148" xlink:href="#m7231248851" y="255.874524"/>
     <use style="fill:#1f77b4;stroke:#1f77b4;" x="404.335468" xlink:href="#m7231248851" y="247.311287"/>
    </g>
   </g>
   <g id="line2d_14">
    <defs>
     <path d="M 10 0 
L -10 -0 
" id="m12b905f31d" style="stroke:#ff7f0e;"/>
    </defs>
    <g clip-path="url(#p92310eca5c)">
     <use style="fill:#ff7f0e;stroke:#ff7f0e;" x="81.444827" xlink:href="#m12b905f31d" y="293.636166"/>
     <use style="fill:#ff7f0e;stroke:#ff7f0e;" x="242.890148" xlink:href="#m12b905f31d" y="272.065189"/>
     <use style="fill:#ff7f0e;stroke:#ff7f0e;" x="404.335468" xlink:href="#m12b905f31d" y="251.177378"/>
    </g>
   </g>
   <g id="line2d_15">
    <g clip-path="url(#p92310eca5c)">
     <use style="fill:#ff7f0e;stroke:#ff7f0e;" x="81.444827" xlink:href="#m12b905f31d" y="273.565433"/>
     <use style="fill:#ff7f0e;stroke:#ff7f0e;" x="242.890148" xlink:href="#m12b905f31d" y="253.3619"/>
     <use style="fill:#ff7f0e;stroke:#ff7f0e;" x="404.335468" xlink:href="#m12b905f31d" y="235.033056"/>
    </g>
   </g>
   <g id="line2d_16">
    <defs>
     <path d="M 10 0 
L -10 -0 
" id="mb544ca8d9f" style="stroke:#2ca02c;"/>
    </defs>
    <g clip-path="url(#p92310eca5c)">
     <use style="fill:#2ca02c;stroke:#2ca02c;" x="81.444827" xlink:href="#mb544ca8d9f" y="235.91938"/>
     <use style="fill:#2ca02c;stroke:#2ca02c;" x="242.890148" xlink:href="#mb544ca8d9f" y="204.416021"/>
     <use style="fill:#2ca02c;stroke:#2ca02c;" x="404.335468" xlink:href="#mb544ca8d9f" y="178.653523"/>
    </g>
   </g>
   <g id="line2d_17">
    <g clip-path="url(#p92310eca5c)">
     <use style="fill:#2ca02c;stroke:#2ca02c;" x="81.444827" xlink:href="#mb544ca8d9f" y="182.42492"/>
     <use style="fill:#2ca02c;stroke:#2ca02c;" x="242.890148" xlink:href="#mb544ca8d9f" y="152.73833"/>
     <use style="fill:#2ca02c;stroke:#2ca02c;" x="404.335468" xlink:href="#mb544ca8d9f" y="129.137323"/>
    </g>
   </g>
   <g id="line2d_18">
    <defs>
     <path d="M 10 0 
L -10 -0 
" id="m8b3316f9d0" style="stroke:#d62728;"/>
    </defs>
    <g clip-path="url(#p92310eca5c)">
     <use style="fill:#d62728;stroke:#d62728;" x="81.444827" xlink:href="#m8b3316f9d0" y="220.476889"/>
     <use style="fill:#d62728;stroke:#d62728;" x="242.890148" xlink:href="#m8b3316f9d0" y="202.220827"/>
     <use style="fill:#d62728;stroke:#d62728;" x="404.335468" xlink:href="#m8b3316f9d0" y="174.596507"/>
    </g>
   </g>
   <g id="line2d_19">
    <g clip-path="url(#p92310eca5c)">
     <use style="fill:#d62728;stroke:#d62728;" x="81.444827" xlink:href="#m8b3316f9d0" y="211.573262"/>
     <use style="fill:#d62728;stroke:#d62728;" x="242.890148" xlink:href="#m8b3316f9d0" y="187.452426"/>
     <use style="fill:#d62728;stroke:#d62728;" x="404.335468" xlink:href="#m8b3316f9d0" y="166.356221"/>
    </g>
   </g>
   <g id="line2d_20">
    <defs>
     <path d="M 10 0 
L -10 -0 
" id="m65d63690de" style="stroke:#9467bd;"/>
    </defs>
    <g clip-path="url(#p92310eca5c)">
     <use style="fill:#9467bd;stroke:#9467bd;" x="81.444827" xlink:href="#m65d63690de" y="87.728356"/>
     <use style="fill:#9467bd;stroke:#9467bd;" x="242.890148" xlink:href="#m65d63690de" y="75.931423"/>
     <use style="fill:#9467bd;stroke:#9467bd;" x="404.335468" xlink:href="#m65d63690de" y="51.132727"/>
    </g>
   </g>
   <g id="line2d_21">
    <g clip-path="url(#p92310eca5c)">
     <use style="fill:#9467bd;stroke:#9467bd;" x="81.444827" xlink:href="#m65d63690de" y="78.480216"/>
     <use style="fill:#9467bd;stroke:#9467bd;" x="242.890148" xlink:href="#m65d63690de" y="75.637583"/>
     <use style="fill:#9467bd;stroke:#9467bd;" x="404.335468" xlink:href="#m65d63690de" y="34.363676"/>
    </g>
   </g>
   <g id="line2d_22">
    <path clip-path="url(#p92310eca5c)" d="M 81.444827 269.244427 
L 242.890148 265.925815 
L 404.335468 257.14451 
" style="fill:none;stroke:#1f77b4;stroke-dasharray:1.5,2.475;stroke-dashoffset:0;stroke-width:1.5;"/>
    <defs>
     <path d="M 0 10 
C 2.652031 10 5.195799 8.946337 7.071068 7.071068 
C 8.946337 5.195799 10 2.652031 10 0 
C 10 -2.652031 8.946337 -5.195799 7.071068 -7.071068 
C 5.195799 -8.946337 2.652031 -10 0 -10 
C -2.652031 -10 -5.195799 -8.946337 -7.071068 -7.071068 
C -8.946337 -5.195799 -10 -2.652031 -10 0 
C -10 2.652031 -8.946337 5.195799 -7.071068 7.071068 
C -5.195799 8.946337 -2.652031 10 0 10 
z
" id="mc42b32b5e3" style="stroke:#000000;"/>
    </defs>
    <g clip-path="url(#p92310eca5c)">
     <use style="fill:#1f77b4;stroke:#000000;" x="81.444827" xlink:href="#mc42b32b5e3" y="269.244427"/>
     <use style="fill:#1f77b4;stroke:#000000;" x="242.890148" xlink:href="#mc42b32b5e3" y="265.925815"/>
     <use style="fill:#1f77b4;stroke:#000000;" x="404.335468" xlink:href="#mc42b32b5e3" y="257.14451"/>
    </g>
   </g>
   <g id="line2d_23">
    <path clip-path="url(#p92310eca5c)" d="M 81.444827 283.6008 
L 242.890148 262.713545 
L 404.335468 243.105217 
" style="fill:none;stroke:#ff7f0e;stroke-dasharray:1.5,2.475;stroke-dashoffset:0;stroke-width:1.5;"/>
    <defs>
     <path d="M 0 10 
C 2.652031 10 5.195799 8.946337 7.071068 7.071068 
C 8.946337 5.195799 10 2.652031 10 0 
C 10 -2.652031 8.946337 -5.195799 7.071068 -7.071068 
C 5.195799 -8.946337 2.652031 -10 0 -10 
C -2.652031 -10 -5.195799 -8.946337 -7.071068 -7.071068 
C -8.946337 -5.195799 -10 -2.652031 -10 0 
C -10 2.652031 -8.946337 5.195799 -7.071068 7.071068 
C -5.195799 8.946337 -2.652031 10 0 10 
z
" id="m29d73ea103" style="stroke:#000000;"/>
    </defs>
    <g clip-path="url(#p92310eca5c)">
     <use style="fill:#ff7f0e;stroke:#000000;" x="81.444827" xlink:href="#m29d73ea103" y="283.6008"/>
     <use style="fill:#ff7f0e;stroke:#000000;" x="242.890148" xlink:href="#m29d73ea103" y="262.713545"/>
     <use style="fill:#ff7f0e;stroke:#000000;" x="404.335468" xlink:href="#m29d73ea103" y="243.105217"/>
    </g>
   </g>
   <g id="line2d_24">
    <path clip-path="url(#p92310eca5c)" d="M 81.444827 209.17215 
L 242.890148 178.577176 
L 404.335468 153.895423 
" style="fill:none;stroke:#2ca02c;stroke-dasharray:1.5,2.475;stroke-dashoffset:0;stroke-width:1.5;"/>
    <defs>
     <path d="M 0 10 
C 2.652031 10 5.195799 8.946337 7.071068 7.071068 
C 8.946337 5.195799 10 2.652031 10 0 
C 10 -2.652031 8.946337 -5.195799 7.071068 -7.071068 
C 5.195799 -8.946337 2.652031 -10 0 -10 
C -2.652031 -10 -5.195799 -8.946337 -7.071068 -7.071068 
C -8.946337 -5.195799 -10 -2.652031 -10 0 
C -10 2.652031 -8.946337 5.195799 -7.071068 7.071068 
C -5.195799 8.946337 -2.652031 10 0 10 
z
" id="mabca1f9599" style="stroke:#000000;"/>
    </defs>
    <g clip-path="url(#p92310eca5c)">
     <use style="fill:#2ca02c;stroke:#000000;" x="81.444827" xlink:href="#mabca1f9599" y="209.17215"/>
     <use style="fill:#2ca02c;stroke:#000000;" x="242.890148" xlink:href="#mabca1f9599" y="178.577176"/>
     <use style="fill:#2ca02c;stroke:#000000;" x="404.335468" xlink:href="#mabca1f9599" y="153.895423"/>
    </g>
   </g>
   <g id="line2d_25">
    <path clip-path="url(#p92310eca5c)" d="M 81.444827 216.025076 
L 242.890148 194.836627 
L 404.335468 170.476364 
" style="fill:none;stroke:#d62728;stroke-dasharray:1.5,2.475;stroke-dashoffset:0;stroke-width:1.5;"/>
    <defs>
     <path d="M 0 10 
C 2.652031 10 5.195799 8.946337 7.071068 7.071068 
C 8.946337 5.195799 10 2.652031 10 0 
C 10 -2.652031 8.946337 -5.195799 7.071068 -7.071068 
C 5.195799 -8.946337 2.652031 -10 0 -10 
C -2.652031 -10 -5.195799 -8.946337 -7.071068 -7.071068 
C -8.946337 -5.195799 -10 -2.652031 -10 0 
C -10 2.652031 -8.946337 5.195799 -7.071068 7.071068 
C -5.195799 8.946337 -2.652031 10 0 10 
z
" id="mf9670d023e" style="stroke:#000000;"/>
    </defs>
    <g clip-path="url(#p92310eca5c)">
     <use style="fill:#d62728;stroke:#000000;" x="81.444827" xlink:href="#mf9670d023e" y="216.025076"/>
     <use style="fill:#d62728;stroke:#000000;" x="242.890148" xlink:href="#mf9670d023e" y="194.836627"/>
     <use style="fill:#d62728;stroke:#000000;" x="404.335468" xlink:href="#mf9670d023e" y="170.476364"/>
    </g>
   </g>
   <g id="line2d_26">
    <path clip-path="url(#p92310eca5c)" d="M 81.444827 83.104286 
L 242.890148 75.784503 
L 404.335468 42.748202 
" style="fill:none;stroke:#9467bd;stroke-dasharray:1.5,2.475;stroke-dashoffset:0;stroke-width:1.5;"/>
    <defs>
     <path d="M 0 10 
C 2.652031 10 5.195799 8.946337 7.071068 7.071068 
C 8.946337 5.195799 10 2.652031 10 0 
C 10 -2.652031 8.946337 -5.195799 7.071068 -7.071068 
C 5.195799 -8.946337 2.652031 -10 0 -10 
C -2.652031 -10 -5.195799 -8.946337 -7.071068 -7.071068 
C -8.946337 -5.195799 -10 -2.652031 -10 0 
C -10 2.652031 -8.946337 5.195799 -7.071068 7.071068 
C -5.195799 8.946337 -2.652031 10 0 10 
z
" id="m39d1984e17" style="stroke:#000000;"/>
    </defs>
    <g clip-path="url(#p92310eca5c)">
     <use style="fill:#9467bd;stroke:#000000;" x="81.444827" xlink:href="#m39d1984e17" y="83.104286"/>
     <use style="fill:#9467bd;stroke:#000000;" x="242.890148" xlink:href="#m39d1984e17" y="75.784503"/>
     <use style="fill:#9467bd;stroke:#000000;" x="404.335468" xlink:href="#m39d1984e17" y="42.748202"/>
    </g>
   </g>
   <g id="patch_3">
    <path d="M 65.300295 306.599791 
L 65.300295 21.400052 
" style="fill:none;stroke:#000000;stroke-linecap:square;stroke-linejoin:miter;stroke-width:0.8;"/>
   </g>
   <g id="patch_4">
    <path d="M 420.48 306.599791 
L 420.48 21.400052 
" style="fill:none;stroke:#000000;stroke-linecap:square;stroke-linejoin:miter;stroke-width:0.8;"/>
   </g>
   <g id="patch_5">
    <path d="M 65.300295 306.599791 
L 420.48 306.599791 
" style="fill:none;stroke:#000000;stroke-linecap:square;stroke-linejoin:miter;stroke-width:0.8;"/>
   </g>
   <g id="patch_6">
    <path d="M 65.300295 21.400052 
L 420.48 21.400052 
" style="fill:none;stroke:#000000;stroke-linecap:square;stroke-linejoin:miter;stroke-width:0.8;"/>
   </g>
   <g id="legend_1">
    <g id="patch_7">
     <path d="M 75.380295 138.602552 
L 224.985045 138.602552 
Q 227.865045 138.602552 227.865045 135.722552 
L 227.865045 31.480052 
Q 227.865045 28.600052 224.985045 28.600052 
L 75.380295 28.600052 
Q 72.500295 28.600052 72.500295 31.480052 
L 72.500295 135.722552 
Q 72.500295 138.602552 75.380295 138.602552 
z
" style="fill:#ffffff;opacity:0.8;stroke:#cccccc;stroke-linejoin:miter;"/>
    </g>
    <g id="LineCollection_6">
     <path d="M 92.660295 47.461802 
L 92.660295 33.061802 
" style="fill:none;stroke:#1f77b4;stroke-width:1.5;"/>
    </g>
    <g id="line2d_27">
     <g>
      <use style="fill:#1f77b4;stroke:#1f77b4;" x="92.660295" xlink:href="#m7231248851" y="47.461802"/>
     </g>
    </g>
    <g id="line2d_28">
     <g>
      <use style="fill:#1f77b4;stroke:#1f77b4;" x="92.660295" xlink:href="#m7231248851" y="33.061802"/>
     </g>
    </g>
    <g id="line2d_29">
     <path d="M 78.260295 40.261802 
L 107.060295 40.261802 
" style="fill:none;stroke:#1f77b4;stroke-dasharray:1.5,2.475;stroke-dashoffset:0;stroke-width:1.5;"/>
    </g>
    <g id="line2d_30">
     <g>
      <use style="fill:#1f77b4;stroke:#000000;" x="92.660295" xlink:href="#mc42b32b5e3" y="40.261802"/>
     </g>
    </g>
    <g id="text_15">
     <!-- 1 Flash -->
     <g transform="translate(118.580295 45.301802)scale(0.144 -0.144)">
      <defs>
       <path d="M 628 4666 
L 3309 4666 
L 3309 4134 
L 1259 4134 
L 1259 2759 
L 3109 2759 
L 3109 2228 
L 1259 2228 
L 1259 0 
L 628 0 
L 628 4666 
z
" id="DejaVuSans-46" transform="scale(0.015625)"/>
       <path d="M 603 4863 
L 1178 4863 
L 1178 0 
L 603 0 
L 603 4863 
z
" id="DejaVuSans-6c" transform="scale(0.015625)"/>
       <path d="M 2194 1759 
Q 1497 1759 1228 1600 
Q 959 1441 959 1056 
Q 959 750 1161 570 
Q 1363 391 1709 391 
Q 2188 391 2477 730 
Q 2766 1069 2766 1631 
L 2766 1759 
L 2194 1759 
z
M 3341 1997 
L 3341 0 
L 2766 0 
L 2766 531 
Q 2569 213 2275 61 
Q 1981 -91 1556 -91 
Q 1019 -91 701 211 
Q 384 513 384 1019 
Q 384 1609 779 1909 
Q 1175 2209 1959 2209 
L 2766 2209 
L 2766 2266 
Q 2766 2663 2505 2880 
Q 2244 3097 1772 3097 
Q 1472 3097 1187 3025 
Q 903 2953 641 2809 
L 641 3341 
Q 956 3463 1253 3523 
Q 1550 3584 1831 3584 
Q 2591 3584 2966 3190 
Q 3341 2797 3341 1997 
z
" id="DejaVuSans-61" transform="scale(0.015625)"/>
       <path d="M 3513 2113 
L 3513 0 
L 2938 0 
L 2938 2094 
Q 2938 2591 2744 2837 
Q 2550 3084 2163 3084 
Q 1697 3084 1428 2787 
Q 1159 2491 1159 1978 
L 1159 0 
L 581 0 
L 581 4863 
L 1159 4863 
L 1159 2956 
Q 1366 3272 1645 3428 
Q 1925 3584 2291 3584 
Q 2894 3584 3203 3211 
Q 3513 2838 3513 2113 
z
" id="DejaVuSans-68" transform="scale(0.015625)"/>
      </defs>
      <use xlink:href="#DejaVuSans-31"/>
      <use x="63.623047" xlink:href="#DejaVuSans-20"/>
      <use x="95.410156" xlink:href="#DejaVuSans-46"/>
      <use x="152.929688" xlink:href="#DejaVuSans-6c"/>
      <use x="180.712891" xlink:href="#DejaVuSans-61"/>
      <use x="241.992188" xlink:href="#DejaVuSans-73"/>
      <use x="294.091797" xlink:href="#DejaVuSans-68"/>
     </g>
    </g>
    <g id="LineCollection_7">
     <path d="M 92.660295 68.598302 
L 92.660295 54.198302 
" style="fill:none;stroke:#ff7f0e;stroke-width:1.5;"/>
    </g>
    <g id="line2d_31">
     <g>
      <use style="fill:#ff7f0e;stroke:#ff7f0e;" x="92.660295" xlink:href="#m12b905f31d" y="68.598302"/>
     </g>
    </g>
    <g id="line2d_32">
     <g>
      <use style="fill:#ff7f0e;stroke:#ff7f0e;" x="92.660295" xlink:href="#m12b905f31d" y="54.198302"/>
     </g>
    </g>
    <g id="line2d_33">
     <path d="M 78.260295 61.398302 
L 107.060295 61.398302 
" style="fill:none;stroke:#ff7f0e;stroke-dasharray:1.5,2.475;stroke-dashoffset:0;stroke-width:1.5;"/>
    </g>
    <g id="line2d_34">
     <g>
      <use style="fill:#ff7f0e;stroke:#000000;" x="92.660295" xlink:href="#m29d73ea103" y="61.398302"/>
     </g>
    </g>
    <g id="text_16">
     <!-- 2 Flashes -->
     <g transform="translate(118.580295 66.438302)scale(0.144 -0.144)">
      <use xlink:href="#DejaVuSans-32"/>
      <use x="63.623047" xlink:href="#DejaVuSans-20"/>
      <use x="95.410156" xlink:href="#DejaVuSans-46"/>
      <use x="152.929688" xlink:href="#DejaVuSans-6c"/>
      <use x="180.712891" xlink:href="#DejaVuSans-61"/>
      <use x="241.992188" xlink:href="#DejaVuSans-73"/>
      <use x="294.091797" xlink:href="#DejaVuSans-68"/>
      <use x="357.470703" xlink:href="#DejaVuSans-65"/>
      <use x="418.994141" xlink:href="#DejaVuSans-73"/>
     </g>
    </g>
    <g id="LineCollection_8">
     <path d="M 92.660295 89.734802 
L 92.660295 75.334802 
" style="fill:none;stroke:#2ca02c;stroke-width:1.5;"/>
    </g>
    <g id="line2d_35">
     <g>
      <use style="fill:#2ca02c;stroke:#2ca02c;" x="92.660295" xlink:href="#mb544ca8d9f" y="89.734802"/>
     </g>
    </g>
    <g id="line2d_36">
     <g>
      <use style="fill:#2ca02c;stroke:#2ca02c;" x="92.660295" xlink:href="#mb544ca8d9f" y="75.334802"/>
     </g>
    </g>
    <g id="line2d_37">
     <path d="M 78.260295 82.534802 
L 107.060295 82.534802 
" style="fill:none;stroke:#2ca02c;stroke-dasharray:1.5,2.475;stroke-dashoffset:0;stroke-width:1.5;"/>
    </g>
    <g id="line2d_38">
     <g>
      <use style="fill:#2ca02c;stroke:#000000;" x="92.660295" xlink:href="#mabca1f9599" y="82.534802"/>
     </g>
    </g>
    <g id="text_17">
     <!-- 4 Flashes -->
     <g transform="translate(118.580295 87.574802)scale(0.144 -0.144)">
      <use xlink:href="#DejaVuSans-34"/>
      <use x="63.623047" xlink:href="#DejaVuSans-20"/>
      <use x="95.410156" xlink:href="#DejaVuSans-46"/>
      <use x="152.929688" xlink:href="#DejaVuSans-6c"/>
      <use x="180.712891" xlink:href="#DejaVuSans-61"/>
      <use x="241.992188" xlink:href="#DejaVuSans-73"/>
      <use x="294.091797" xlink:href="#DejaVuSans-68"/>
      <use x="357.470703" xlink:href="#DejaVuSans-65"/>
      <use x="418.994141" xlink:href="#DejaVuSans-73"/>
     </g>
    </g>
    <g id="LineCollection_9">
     <path d="M 92.660295 110.871302 
L 92.660295 96.471302 
" style="fill:none;stroke:#d62728;stroke-width:1.5;"/>
    </g>
    <g id="line2d_39">
     <g>
      <use style="fill:#d62728;stroke:#d62728;" x="92.660295" xlink:href="#m8b3316f9d0" y="110.871302"/>
     </g>
    </g>
    <g id="line2d_40">
     <g>
      <use style="fill:#d62728;stroke:#d62728;" x="92.660295" xlink:href="#m8b3316f9d0" y="96.471302"/>
     </g>
    </g>
    <g id="line2d_41">
     <path d="M 78.260295 103.671302 
L 107.060295 103.671302 
" style="fill:none;stroke:#d62728;stroke-dasharray:1.5,2.475;stroke-dashoffset:0;stroke-width:1.5;"/>
    </g>
    <g id="line2d_42">
     <g>
      <use style="fill:#d62728;stroke:#000000;" x="92.660295" xlink:href="#mf9670d023e" y="103.671302"/>
     </g>
    </g>
    <g id="text_18">
     <!-- 8 Flashes -->
     <g transform="translate(118.580295 108.711302)scale(0.144 -0.144)">
      <use xlink:href="#DejaVuSans-38"/>
      <use x="63.623047" xlink:href="#DejaVuSans-20"/>
      <use x="95.410156" xlink:href="#DejaVuSans-46"/>
      <use x="152.929688" xlink:href="#DejaVuSans-6c"/>
      <use x="180.712891" xlink:href="#DejaVuSans-61"/>
      <use x="241.992188" xlink:href="#DejaVuSans-73"/>
      <use x="294.091797" xlink:href="#DejaVuSans-68"/>
      <use x="357.470703" xlink:href="#DejaVuSans-65"/>
      <use x="418.994141" xlink:href="#DejaVuSans-73"/>
     </g>
    </g>
    <g id="LineCollection_10">
     <path d="M 92.660295 132.007802 
L 92.660295 117.607802 
" style="fill:none;stroke:#9467bd;stroke-width:1.5;"/>
    </g>
    <g id="line2d_43">
     <g>
      <use style="fill:#9467bd;stroke:#9467bd;" x="92.660295" xlink:href="#m65d63690de" y="132.007802"/>
     </g>
    </g>
    <g id="line2d_44">
     <g>
      <use style="fill:#9467bd;stroke:#9467bd;" x="92.660295" xlink:href="#m65d63690de" y="117.607802"/>
     </g>
    </g>
    <g id="line2d_45">
     <path d="M 78.260295 124.807802 
L 107.060295 124.807802 
" style="fill:none;stroke:#9467bd;stroke-dasharray:1.5,2.475;stroke-dashoffset:0;stroke-width:1.5;"/>
    </g>
    <g id="line2d_46">
     <g>
      <use style="fill:#9467bd;stroke:#000000;" x="92.660295" xlink:href="#m39d1984e17" y="124.807802"/>
     </g>
    </g>
    <g id="text_19">
     <!-- RTP Reference -->
     <g transform="translate(118.580295 129.847802)scale(0.144 -0.144)">
      <defs>
       <path d="M 2841 2188 
Q 3044 2119 3236 1894 
Q 3428 1669 3622 1275 
L 4263 0 
L 3584 0 
L 2988 1197 
Q 2756 1666 2539 1819 
Q 2322 1972 1947 1972 
L 1259 1972 
L 1259 0 
L 628 0 
L 628 4666 
L 2053 4666 
Q 2853 4666 3247 4331 
Q 3641 3997 3641 3322 
Q 3641 2881 3436 2590 
Q 3231 2300 2841 2188 
z
M 1259 4147 
L 1259 2491 
L 2053 2491 
Q 2509 2491 2742 2702 
Q 2975 2913 2975 3322 
Q 2975 3731 2742 3939 
Q 2509 4147 2053 4147 
L 1259 4147 
z
" id="DejaVuSans-52" transform="scale(0.015625)"/>
       <path d="M -19 4666 
L 3928 4666 
L 3928 4134 
L 2272 4134 
L 2272 0 
L 1638 0 
L 1638 4134 
L -19 4134 
L -19 4666 
z
" id="DejaVuSans-54" transform="scale(0.015625)"/>
       <path d="M 1259 4147 
L 1259 2394 
L 2053 2394 
Q 2494 2394 2734 2622 
Q 2975 2850 2975 3272 
Q 2975 3691 2734 3919 
Q 2494 4147 2053 4147 
L 1259 4147 
z
M 628 4666 
L 2053 4666 
Q 2838 4666 3239 4311 
Q 3641 3956 3641 3272 
Q 3641 2581 3239 2228 
Q 2838 1875 2053 1875 
L 1259 1875 
L 1259 0 
L 628 0 
L 628 4666 
z
" id="DejaVuSans-50" transform="scale(0.015625)"/>
       <path d="M 2631 2963 
Q 2534 3019 2420 3045 
Q 2306 3072 2169 3072 
Q 1681 3072 1420 2755 
Q 1159 2438 1159 1844 
L 1159 0 
L 581 0 
L 581 3500 
L 1159 3500 
L 1159 2956 
Q 1341 3275 1631 3429 
Q 1922 3584 2338 3584 
Q 2397 3584 2469 3576 
Q 2541 3569 2628 3553 
L 2631 2963 
z
" id="DejaVuSans-72" transform="scale(0.015625)"/>
      </defs>
      <use xlink:href="#DejaVuSans-52"/>
      <use x="62.232422" xlink:href="#DejaVuSans-54"/>
      <use x="123.316406" xlink:href="#DejaVuSans-50"/>
      <use x="183.619141" xlink:href="#DejaVuSans-20"/>
      <use x="215.40625" xlink:href="#DejaVuSans-52"/>
      <use x="280.388672" xlink:href="#DejaVuSans-65"/>
      <use x="341.912109" xlink:href="#DejaVuSans-66"/>
      <use x="377.117188" xlink:href="#DejaVuSans-65"/>
      <use x="438.640625" xlink:href="#DejaVuSans-72"/>
      <use x="477.503906" xlink:href="#DejaVuSans-65"/>
      <use x="539.027344" xlink:href="#DejaVuSans-6e"/>
      <use x="602.40625" xlink:href="#DejaVuSans-63"/>
      <use x="657.386719" xlink:href="#DejaVuSans-65"/>
     </g>
    </g>
   </g>
  </g>
 </g>
 <defs>
  <clipPath id="p92310eca5c">
   <rect height="285.199739" width="355.179705" x="65.300295" y="21.400052"/>
  </clipPath>
 </defs>
</svg>
